<?xml version="1.0" encoding="utf-8"?>
<!-- Generator: Adobe Illustrator 21.0.0, SVG Export Plug-In . SVG Version: 6.00 Build 0)  -->
<svg version="1.1" id="图层_1" xmlns="http://www.w3.org/2000/svg" xmlns:xlink="http://www.w3.org/1999/xlink" x="0px" y="0px"
	 viewBox="0 0 20 40" style="enable-background:new 0 0 20 40;" xml:space="preserve">
<style type="text/css">
	.st0{fill:#9B9B9B;}
	.st1{fill:url(#Fill-1_2_);}
</style>
<title>Artboard 3</title>
<desc>Created with Sketch.</desc>
<g id="关闭">
	<g id="Fill-1" transform="translate(2.000000, 2.000000)">
		<polygon class="st0" points="15.6,1.3 14.7,0.4 8,7.1 1.3,0.4 0.4,1.3 7.1,8 0.4,14.7 1.3,15.6 8,8.9 14.7,15.6 15.6,14.7 8.9,8 
					"/>
	</g>
</g>
<g id="关闭-copy-3" transform="translate(0.000000, 20.000000)">
	<g id="关闭_1_" transform="translate(2.000000, 2.000000)">
		<linearGradient id="Fill-1_2_" gradientUnits="userSpaceOnUse" x1="0.85" y1="0.85" x2="15.15" y2="15.15">
			<stop  offset="0" style="stop-color:#17B6FF"/>
			<stop  offset="0.46" style="stop-color:#6094E9"/>
			<stop  offset="1" style="stop-color:#FE2AFF"/>
			<stop  offset="1" style="stop-color:#9C36FF"/>
		</linearGradient>
		<polygon id="Fill-1_1_" class="st1" points="15.6,1.3 14.7,0.4 8,7.1 1.3,0.4 0.4,1.3 7.1,8 0.4,14.7 1.3,15.6 8,8.9 14.7,15.6 
			15.6,14.7 8.9,8 		"/>
	</g>
</g>
<g id="Artboard-3">
</g>
</svg>
