<?xml version="1.0" encoding="utf-8"?>

<svg version="1.1" id="图层_1" xmlns="http://www.w3.org/2000/svg" xmlns:xlink="http://www.w3.org/1999/xlink" x="0px" y="0px"
	 viewBox="0 0 50 212" width="50px" height="212px" style="enable-background:new 0 0 50 212;" xml:space="preserve">
<style type="text/css">
	.st0{fill:#666666;}
	.st1{fill:none;stroke:#FFFFFF;stroke-width:2;}
	.st2{fill:#745BFF;}
	.st3{fill:#9B9B9B;}
	.st4{fill:#FFFFFF;}
</style>
<title>Artboard</title>
<desc>Created with Sketch.</desc>
<g id="左上" transform="translate(2.000000, 2.000000)">
	<g id="Combined-Shape-Copy" transform="translate(5.000000, 5.000000) scale(1, -1) translate(-5.000000, -5.000000) ">
		<g>
			<g>
				<path id="path-1" class="st0" d="M0,5.2h5.2V0C7.9,0.1,10,2.3,10,5c0,2.8-2.2,5-5,5C2.3,10,0.1,7.9,0,5.2z"/>
			</g>
			<path class="st1" d="M4.2,4.2V-1l1,0C8.4-0.9,11,1.8,11,5c0,3.3-2.7,6-6,6c-3.2,0-5.9-2.6-6-5.8l0-1H4.2z"/>
		</g>
	</g>
</g>
<g>
	<path id="path-2" class="st2" d="M26,6.8h5.2V12c2.7-0.1,4.8-2.3,4.8-5c0-2.8-2.2-5-5-5C28.3,2,26.1,4.1,26,6.8z"/>
	<path class="st1" d="M30.2,7.8V13l1,0c3.2-0.1,5.8-2.8,5.8-6c0-3.3-2.7-6-6-6c-3.2,0-5.9,2.6-6,5.8l0,1H30.2z"/>
</g>
<g id="右下" transform="translate(7.000000, 7.000000) scale(1, -1) translate(-7.000000, -7.000000) translate(2.000000, 2.000000)">
	<g id="左上_2_" transform="translate(5.000000, 5.000000) scale(-1, 1) translate(-5.000000, -5.000000) ">
		<g id="Combined-Shape-Copy_2_">
			<g>
				<path id="path-3" class="st0" d="M0-18.8h5.2V-24c2.7,0.1,4.8,2.3,4.8,5c0,2.8-2.2,5-5,5C2.3-14,0.1-16.1,0-18.8z"/>
			</g>
			<path class="st1" d="M4.2-19.8V-25l1,0c3.2,0.1,5.8,2.8,5.8,6c0,3.3-2.7,6-6,6c-3.2,0-5.9-2.6-6-5.8l0-1H4.2z"/>
		</g>
	</g>
</g>
<g>
	<g>
		<path id="path-4" class="st2" d="M36,30.8h-5.2V36c-2.7-0.1-4.8-2.3-4.8-5c0-2.8,2.2-5,5-5C33.7,26,35.9,28.1,36,30.8z"/>
	</g>
	<path class="st1" d="M31.8,31.8V37l-1,0c-3.2-0.1-5.8-2.8-5.8-6c0-3.3,2.7-6,6-6c3.2,0,5.9,2.6,6,5.8l0,1H31.8z"/>
</g>
<g id="右上_x3011_" transform="translate(7.000000, 7.000000) scale(-1, -1) translate(-7.000000, -7.000000) translate(2.000000, 2.000000)">
	<g id="左上_4_" transform="translate(5.000000, 5.000000) scale(-1, -1) translate(-5.000000, -5.000000) ">
		<g id="Combined-Shape-Copy_4_">
			<g>
				<path id="path-5" class="st0" d="M4.8,48v5.2H10C9.9,55.9,7.7,58,5,58c-2.8,0-5-2.2-5-5C0,50.3,2.1,48.1,4.8,48z"/>
			</g>
			<path class="st1" d="M5.8,52.2H11l0,1C10.9,56.4,8.2,59,5,59c-3.3,0-6-2.7-6-6c0-3.2,2.6-5.9,5.8-6l1,0V52.2z"/>
		</g>
	</g>
</g>
<g>
	<g>
		<path id="path-6" class="st2" d="M30.8,50v5.2H36c-0.1,2.7-2.3,4.8-5,4.8c-2.8,0-5-2.2-5-5C26,52.3,28.1,50.1,30.8,50z"/>
	</g>
	<path class="st1" d="M31.8,54.2H37l0,1c-0.1,3.2-2.8,5.8-6,5.8c-3.3,0-6-2.7-6-6c0-3.2,2.6-5.9,5.8-6l1,0V54.2z"/>
</g>
<g id="右上_x3011__1_" transform="translate(7.000000, 7.000000) scale(1, -1) translate(-7.000000, -7.000000) translate(2.000000, 2.000000)">
	<g id="左上_6_" transform="translate(5.000000, 5.000000) scale(-1, -1) translate(-5.000000, -5.000000) ">
		<g id="Combined-Shape-Copy_6_">
			<g>
				<path id="path-7" class="st0" d="M4.8,72v5.2H10C9.9,79.9,7.7,82,5,82c-2.8,0-5-2.2-5-5C0,74.3,2.1,72.1,4.8,72z"/>
			</g>
			<path class="st1" d="M5.8,76.2H11l0,1C10.9,80.4,8.2,83,5,83c-3.3,0-6-2.7-6-6c0-3.2,2.6-5.9,5.8-6l1,0V76.2z"/>
		</g>
	</g>
</g>
<g>
	<g>
		<path id="path-8" class="st2" d="M31.2,74v5.2H26c0.1,2.7,2.3,4.8,5,4.8c2.8,0,5-2.2,5-5C36,76.3,33.9,74.1,31.2,74z"/>
	</g>
	<path class="st1" d="M30.2,78.2H25l0,1c0.1,3.2,2.8,5.8,6,5.8c3.3,0,6-2.7,6-6c0-3.2-2.6-5.9-5.8-6l-1,0V78.2z"/>
</g>
<g id="Oval-2-Copy-34">
	<g>
		<path id="path-9" class="st0" d="M12,103c0-2.8-2.2-5-5-5s-5,2.2-5,5H12z"/>
	</g>
	<path class="st1" d="M13,104H1v-1c0-3.3,2.7-6,6-6s6,2.7,6,6V104z"/>
</g>
<g>
	<g>
		<path id="path-10" class="st2" d="M36,103c0-2.8-2.2-5-5-5s-5,2.2-5,5H36z"/>
	</g>
	<path class="st1" d="M37,104H25v-1c0-3.3,2.7-6,6-6s6,2.7,6,6V104z"/>
</g>
<g id="Oval-2-Copy-35" transform="translate(4.500000, 7.000000) rotate(-180.000000) translate(-4.500000, -7.000000) ">
	<g>
		<path id="path-11" class="st0" d="M7-108c0-2.8-2.2-5-5-5s-5,2.2-5,5H7z"/>
	</g>
	<path class="st1" d="M8-107H-4v-1c0-3.3,2.7-6,6-6s6,2.7,6,6V-107z"/>
</g>
<g>
	<g>
		<path id="path-12" class="st2" d="M26,122c0,2.8,2.2,5,5,5s5-2.2,5-5H26z"/>
	</g>
	<path class="st1" d="M25,121h12v1c0,3.3-2.7,6-6,6s-6-2.7-6-6V121z"/>
</g>
<g id="Oval-2-Copy-36" transform="translate(7.000000, 4.500000) rotate(-270.000000) translate(-7.000000, -4.500000) ">
	<g>
		<path id="path-13" class="st0" d="M148.5,4.5c0,2.8,2.2,5,5,5c2.8,0,5-2.2,5-5H148.5z"/>
	</g>
	<path class="st1" d="M147.5,3.5h12v1c0,3.3-2.7,6-6,6c-3.3,0-6-2.7-6-6V3.5z"/>
</g>
<g>
	<g>
		<path id="path-14" class="st2" d="M31,146c-2.8,0-5,2.2-5,5c0,2.8,2.2,5,5,5V146z"/>
	</g>
	<path class="st1" d="M32,145v12h-1c-3.3,0-6-2.7-6-6c0-3.3,2.7-6,6-6H32z"/>
</g>
<g id="Oval-2-Copy-37" transform="translate(7.000000, 4.500000) rotate(-90.000000) translate(-7.000000, -4.500000) ">
	<g>
		<path id="path-15" class="st0" d="M-168.5-0.5c0,2.8,2.2,5,5,5c2.8,0,5-2.2,5-5H-168.5z"/>
	</g>
	<path class="st1" d="M-169.5-1.5h12v1c0,3.3-2.7,6-6,6c-3.3,0-6-2.7-6-6V-1.5z"/>
</g>
<g>
	<g>
		<path id="path-16" class="st2" d="M26,180c2.8,0,5-2.2,5-5c0-2.8-2.2-5-5-5V180z"/>
	</g>
	<path class="st1" d="M25,181v-12h1c3.3,0,6,2.7,6,6c0,3.3-2.7,6-6,6H25z"/>
</g>
<g id="Group-2_1_">
	<g id="Oval-2-Copy-26">
		<g id="path-1-link">
			<circle id="path-1_1_" class="st3" cx="10" cy="202" r="10"/>
		</g>
		<circle id="Oval" class="st1" cx="10" cy="202" r="9"/>
	</g>
</g>
<path id="Combined-Shape" class="st4" d="M14.3,201.6c-0.1-1.5-0.9-2.9-2.3-3.7c-1.6-0.9-3.6-0.6-4.9,0.5c-0.3,0.2-0.7,0.2-0.9-0.1
	c-0.2-0.3-0.2-0.7,0.1-0.9c1.8-1.5,4.3-1.8,6.4-0.7c1.8,1,2.9,2.8,3,4.8h1.1l-1.8,2.7l-1.8-2.7H14.3z"/>
<path id="Combined-Shape-Copy-2" class="st4" d="M5.6,202.5c0.1,1.5,0.9,2.9,2.3,3.7c1.6,0.9,3.6,0.6,4.9-0.5
	c0.3-0.2,0.7-0.2,0.9,0.1c0.2,0.3,0.2,0.7-0.1,0.9c-1.8,1.5-4.3,1.8-6.4,0.7c-1.8-1-2.9-2.8-3-4.8H3.3l1.8-2.7l1.8,2.7H5.6z"/>
<g>
	<g id="path-2-link">
		<circle id="path-2_1_" class="st2" cx="40" cy="202" r="10"/>
	</g>
	<circle id="Oval_1_" class="st1" cx="40" cy="202" r="9"/>
	<path id="Combined-Shape_1_" class="st4" d="M44.3,201.6c-0.1-1.5-0.9-2.9-2.3-3.7c-1.6-0.9-3.6-0.6-4.9,0.5
		c-0.3,0.2-0.7,0.2-0.9-0.1c-0.2-0.3-0.2-0.7,0.1-0.9c1.8-1.5,4.3-1.8,6.4-0.7c1.8,1,2.9,2.8,3,4.8h1.1l-1.8,2.7l-1.8-2.7H44.3z"/>
	<path id="Combined-Shape-Copy-2_1_" class="st4" d="M35.6,202.5c0.1,1.5,0.9,2.9,2.3,3.7c1.6,0.9,3.6,0.6,4.9-0.5
		c0.3-0.2,0.7-0.2,0.9,0.1c0.2,0.3,0.2,0.7-0.1,0.9c-1.8,1.5-4.3,1.8-6.4,0.7c-1.8-1-2.9-2.8-3-4.8h-1.1l1.8-2.7l1.8,2.7H35.6z"/>
</g>
</svg>
