<svg xmlns="http://www.w3.org/2000/svg" xmlns:xlink="http://www.w3.org/1999/xlink" viewBox="0 0 928.69 288"><defs><linearGradient id="未命名的渐变_106" x1="-10.55" y1="81.56" x2="298.55" y2="206.44" gradientUnits="userSpaceOnUse"><stop offset="0" stop-color="#3ca9f1"/><stop offset="0.46" stop-color="#6094e9"/><stop offset="1" stop-color="#855ef4"/></linearGradient></defs><title>确认版logo</title><g id="确认版"><g id="中文_拷贝" data-name="中文 拷贝"><path d="M354,210h0ZM520.3,89.2a7.37,7.37,0,0,0-.07-1V76.42a35.38,35.38,0,0,0-33.8-35.51c-.19,0-.38,0-.57,0H424.74c-8.8,0-12.24,5.78-12.24,9.21s3.56,9.21,12.24,9.21h60.85a17.43,17.43,0,0,1,16.32,17.12V107.5H502v33.75l-.12,31.07c0,9.58-9.38,17.17-16.79,17.17H461.53c-.16,0-.33,0-.49,0H425.57c-9.28,0-12.24,5.78-12.24,9.22s3.15,9.21,12.24,9.21h59.5c22.22,0,35.57-15.7,35.57-35.54V141.25h-.1ZM712.86,191.58H646.27V171.17h46.11c5.1,0,9.24-5.78,9.24-9.21s-4.13-9.21-9.24-9.21H646.27v-9.48h37.19c19.92,0,35.35-15.51,35.35-35.54V76.42c0-20.09-14.83-35.55-35.35-35.55H587.08c-20,0-35.35,14.8-35.35,35.55v31.31c0,19.33,14.85,35.54,35.35,35.54H627.6v9.48H578.17c-5.11,0-9.24,5.78-9.24,9.21s4.13,9.21,9.24,9.21H627.6v20.41H557.68c-5.1,0-9.24,5.78-9.24,9.21s4.14,9.21,9.24,9.21H712.86c5.1,0,9.24-5.78,9.24-9.21S718,191.58,712.86,191.58ZM646.27,101h30.94c5.4,0,9.78-4,9.78-9s-4.38-9-9.78-9H646.27V59h35.49C692.37,59,701,67.34,701,77.58v28.85c0,10.24-8.63,18.57-19.23,18.57H646.27ZM627.6,83H592.78c-5.4,0-9.78,4-9.78,9s4.38,9,9.78,9H627.6v24H589.22c-10.61,0-19.23-8.33-19.23-18.57V77.58C570,67.34,578.61,59,589.22,59H627.6ZM370.55,40.87H359.3V41H353s-8.49,2-8.49,10.06V197.71c0,6.25,3,12.27,9.46,12.28,5.79-.09,9.2-6.1,9.2-12.28l-.1-30.14c2.42,2.08,7.47,1.38,7.47,1.38,20.7,0,35.35-16.63,35.35-35.55v-57A35.05,35.05,0,0,0,370.55,40.87Zm17,92.54c0,8.35-7.46,17.15-17,17.15,0,0-7.2-.5-7.54-3.51l-.16-49.66.09-34.32c1-1.91,2.66-3.81,4.09-3.81h3.52a17.12,17.12,0,0,1,17,17.16ZM779.65,59.26h9.22c.18,0,.35,0,.54,0h34.07c5.1,0,9.24-5.78,9.24-9.21s-4.14-9.21-9.24-9.21H779.65c-20.41,0-35.34,14.81-35.34,35.55v98.05c0,19.87,15.42,35.54,35.34,35.54h43.82c5.1,0,9.24-5.78,9.24-9.21s-4.14-9.21-9.24-9.21H789.4c-.17,0-.33,0-.49,0h-9.26c-8.38,0-17-8.13-17-17.15v-42h60.85c5.1,0,9.24-5.78,9.24-9.21s-4.14-9.22-9.24-9.22H762.63V76.42C762.63,67.61,770.21,59.26,779.65,59.26Zm113.7-18.39H870.58c-19.92,0-35.35,15.44-35.35,35.55v124.3c0,5.14,5.84,9.29,9.33,9.29s9.33-4.16,9.33-9.29L853.56,89.2V76.42a17.25,17.25,0,0,1,17-17.16h22.76a17,17,0,0,1,17,17.16v98.87a17.07,17.07,0,0,1-17,17.15H893c-.16,0-.33,0-.49,0h-25c-5.1,0-9.24,5.78-9.24,9.21s4.14,9.22,9.24,9.22h25.86c20.36,0,35.35-15.73,35.35-35.55V76.42C928.69,57.11,913.71,40.87,893.35,40.87ZM450.86,175h9.63c19.38,0,31.41-15.3,31.41-35.34V103c0-19.81-12.71-35.33-31.41-35.33h-9.63c-18.28,0-31.41,15.19-31.41,35.33v36.65C419.45,160.56,433,175,450.86,175ZM437,105.49c0-10.57,5.87-19.5,14-19.5h9c8.13,0,14,8.93,14,19.5v33c0,10.58-5.87,19.51-14,19.51h-9c-8.13,0-14-8.93-14-19.51Z" style="fill:#333;fill-rule:evenodd"/></g><g id="英文_拷贝" data-name="英文 拷贝"><path d="M382.17,231.48a1.43,1.43,0,0,0-1.49,1.17L373.82,256l-7.18-23.31a1.55,1.55,0,0,0-1.54-1.17,1.5,1.5,0,0,0-1.54,1.17l-7,23.31-7-23.31a1.43,1.43,0,0,0-1.49-1.17q-1.63,0-1.63,1.55a3.11,3.11,0,0,0,.19.94L355,261.69q.37,1.36,1.49,1.36t1.54-1.36l7.09-23.08,7.09,23.08q.46,1.36,1.59,1.36t1.54-1.36L383.61,234a3.13,3.13,0,0,0,.19-.94Q383.8,231.48,382.17,231.48Zm54.16,0a1.43,1.43,0,0,0-1.49,1.17L428,256l-7.18-23.31a1.55,1.55,0,0,0-1.54-1.17,1.5,1.5,0,0,0-1.54,1.17l-7,23.31-7-23.31a1.43,1.43,0,0,0-1.49-1.17q-1.63,0-1.63,1.55a3.11,3.11,0,0,0,.19.94l8.49,27.72q.37,1.36,1.49,1.36t1.54-1.36l7.09-23.08,7.09,23.08q.46,1.36,1.59,1.36t1.54-1.36L437.77,234A3.13,3.13,0,0,0,438,233Q438,231.48,436.33,231.48Zm54.16,0a1.43,1.43,0,0,0-1.49,1.17L482.14,256,475,232.66a1.55,1.55,0,0,0-1.54-1.17,1.5,1.5,0,0,0-1.54,1.17l-7,23.31-7-23.31a1.43,1.43,0,0,0-1.49-1.17q-1.63,0-1.63,1.55a3.11,3.11,0,0,0,.19.94l8.49,27.72q.37,1.36,1.49,1.36t1.54-1.36l7.09-23.08,7.09,23.08q.46,1.36,1.58,1.36t1.54-1.36L491.93,234a3.13,3.13,0,0,0,.19-.94Q492.12,231.48,490.49,231.48Zm23.25,25a3,3,0,0,0-2.28,1,3.19,3.19,0,0,0,0,4.6,3.1,3.1,0,0,0,2.28.94,3.25,3.25,0,0,0,2.24-5.53A3.07,3.07,0,0,0,513.74,256.44Zm37.8-23.78c-.4-.81-.92-1.22-1.54-1.22s-1.12.4-1.49,1.22l-12.87,27.11a3.85,3.85,0,0,0-.37,1.73,1.32,1.32,0,0,0,1.49,1.5,1.83,1.83,0,0,0,1.82-1.13l3.73-8.11h15.39l3.78,8.07a1.83,1.83,0,0,0,1.82,1.18,1.28,1.28,0,0,0,1-.52,1.36,1.36,0,0,0,.42-1,3.85,3.85,0,0,0-.37-1.73Zm-7.6,17.64L550,237.07l6.11,13.23Zm59.43,8.63H587.74a.66.66,0,0,1-.75-.75V233.41q0-2-1.72-2t-1.68,2v26.88q0,2,2.1,2h17.67q2,0,2-1.69T603.36,258.92Zm26.79-27.49q-1.68,0-1.68,2.2V260.8q0,2.2,1.68,2.21t1.72-2.21V233.64Q631.88,231.44,630.15,231.44Zm50,0a1.7,1.7,0,0,0-1.31.75L667.9,246.45,657,232.19a1.7,1.7,0,0,0-1.31-.75q-1.91,0-1.91,1.5a1.94,1.94,0,0,0,.51,1.27l11.94,15.62V261q0,2,1.68,2t1.68-2V249.82l11.94-15.62a2.07,2.07,0,0,0,.47-1.27Q682,231.44,680.12,231.44Zm25.44,0q-1.68,0-1.68,2.2V260.8q0,2.2,1.68,2.21t1.73-2.21V233.64Q707.28,231.44,705.56,231.44Zm48.66,0q-1.72,0-1.73,2v22.75l-18.28-23.69q-.84-1-1.35-1-1.54,0-1.54,2V261q0,2,1.68,2t1.68-2v-22.8L753,261.88q.88,1.13,1.49,1.13,1.4,0,1.4-2V233.41Q755.89,231.44,754.21,231.44Zm25.39,25a3,3,0,0,0-2.28,1,3.19,3.19,0,0,0,0,4.6,3.1,3.1,0,0,0,2.28.94,3.25,3.25,0,0,0,2.24-5.53A3.07,3.07,0,0,0,779.61,256.44Zm46-4.22a1.42,1.42,0,0,0-1.35,1.08,10.92,10.92,0,0,1-3.54,4.5,8.6,8.6,0,0,1-5.18,1.73,8.33,8.33,0,0,1-7.13-3.52,13.05,13.05,0,0,1-2.38-8,15.64,15.64,0,0,1,2.52-9.15,8.92,8.92,0,0,1,7.83-4,8.57,8.57,0,0,1,4.8,1.41,7.19,7.19,0,0,1,3,4.13c.22.75.64,1.12,1.26,1.12q2,0,2-1.92a6.76,6.76,0,0,0-1.59-3.8q-3.17-4.36-9.51-4.36-6.76,0-10.49,4.88-3.5,4.55-3.5,11.73a16.17,16.17,0,0,0,3.31,10.37A11.49,11.49,0,0,0,815.3,263a12.91,12.91,0,0,0,9.93-4.69q2.33-2.53,2.33-4.22Q827.57,252.22,825.56,252.22Zm34.35-20.78q-6.95,0-10.54,4.69-3.22,4.22-3.22,11.21,0,6.8,3.26,11Q853,263,859.91,263t10.49-4.69q3.31-4.12,3.31-10.93,0-7-3.31-11.21Q866.76,231.43,859.91,231.44Zm7.69,24.39a9,9,0,0,1-7.69,3.75,8.88,8.88,0,0,1-7.69-3.8,14.26,14.26,0,0,1-2.38-8.49,14.73,14.73,0,0,1,2.38-8.68,9.65,9.65,0,0,1,15.39,0,15,15,0,0,1,2.38,8.73A14.17,14.17,0,0,1,867.6,255.83Zm57-24.39a1.86,1.86,0,0,0-1.82,1L910.1,257.66l-12.73-25.19a1.82,1.82,0,0,0-1.77-1q-1.87,0-1.87,2V261q0,2,1.68,2t1.73-2V240l11.33,21.86A1.76,1.76,0,0,0,910.1,263a1.88,1.88,0,0,0,1.72-1.13L923.06,240v21q0,2,1.73,2t1.72-2V233.41Q926.51,231.44,924.65,231.44Z" style="fill:#333;fill-rule:evenodd"/><path d="M382.17,231.48a1.43,1.43,0,0,0-1.49,1.17L373.82,256l-7.18-23.31a1.55,1.55,0,0,0-1.54-1.17,1.5,1.5,0,0,0-1.54,1.17l-7,23.31-7-23.31a1.43,1.43,0,0,0-1.49-1.17q-1.63,0-1.63,1.55a3.11,3.11,0,0,0,.19.94L355,261.69q.37,1.36,1.49,1.36t1.54-1.36l7.09-23.08,7.09,23.08q.46,1.36,1.59,1.36t1.54-1.36L383.61,234a3.13,3.13,0,0,0,.19-.94Q383.8,231.48,382.17,231.48Zm54.16,0a1.43,1.43,0,0,0-1.49,1.17L428,256l-7.18-23.31a1.55,1.55,0,0,0-1.54-1.17,1.5,1.5,0,0,0-1.54,1.17l-7,23.31-7-23.31a1.43,1.43,0,0,0-1.49-1.17q-1.63,0-1.63,1.55a3.11,3.11,0,0,0,.19.94l8.49,27.72q.37,1.36,1.49,1.36t1.54-1.36l7.09-23.08,7.09,23.08q.46,1.36,1.59,1.36t1.54-1.36L437.77,234A3.13,3.13,0,0,0,438,233Q438,231.48,436.33,231.48Zm54.16,0a1.43,1.43,0,0,0-1.49,1.17L482.14,256,475,232.66a1.55,1.55,0,0,0-1.54-1.17,1.5,1.5,0,0,0-1.54,1.17l-7,23.31-7-23.31a1.43,1.43,0,0,0-1.49-1.17q-1.63,0-1.63,1.55a3.11,3.11,0,0,0,.19.94l8.49,27.72q.37,1.36,1.49,1.36t1.54-1.36l7.09-23.08,7.09,23.08q.46,1.36,1.58,1.36t1.54-1.36L491.93,234a3.13,3.13,0,0,0,.19-.94Q492.12,231.48,490.49,231.48Zm23.25,25a3,3,0,0,0-2.28,1,3.19,3.19,0,0,0,0,4.6,3.1,3.1,0,0,0,2.28.94,3.25,3.25,0,0,0,2.24-5.53A3.07,3.07,0,0,0,513.74,256.44Zm37.8-23.78c-.4-.81-.92-1.22-1.54-1.22s-1.12.4-1.49,1.22l-12.87,27.11a3.85,3.85,0,0,0-.37,1.73,1.32,1.32,0,0,0,1.49,1.5,1.83,1.83,0,0,0,1.82-1.13l3.73-8.11h15.39l3.78,8.07a1.83,1.83,0,0,0,1.82,1.18,1.28,1.28,0,0,0,1-.52,1.36,1.36,0,0,0,.42-1,3.85,3.85,0,0,0-.37-1.73Zm-7.6,17.64L550,237.07l6.11,13.23Zm59.43,8.63H587.74a.66.66,0,0,1-.75-.75V233.41q0-2-1.72-2t-1.68,2v26.88q0,2,2.1,2h17.67q2,0,2-1.69T603.36,258.92Zm26.79-27.49q-1.68,0-1.68,2.2V260.8q0,2.2,1.68,2.21t1.72-2.21V233.64Q631.88,231.44,630.15,231.44Zm50,0a1.7,1.7,0,0,0-1.31.75L667.9,246.45,657,232.19a1.7,1.7,0,0,0-1.31-.75q-1.91,0-1.91,1.5a1.94,1.94,0,0,0,.51,1.27l11.94,15.62V261q0,2,1.68,2t1.68-2V249.82l11.94-15.62a2.07,2.07,0,0,0,.47-1.27Q682,231.44,680.12,231.44Zm25.44,0q-1.68,0-1.68,2.2V260.8q0,2.2,1.68,2.21t1.73-2.21V233.64Q707.28,231.44,705.56,231.44Zm48.66,0q-1.72,0-1.73,2v22.75l-18.28-23.69q-.84-1-1.35-1-1.54,0-1.54,2V261q0,2,1.68,2t1.68-2v-22.8L753,261.88q.88,1.13,1.49,1.13,1.4,0,1.4-2V233.41Q755.89,231.44,754.21,231.44Zm25.39,25a3,3,0,0,0-2.28,1,3.19,3.19,0,0,0,0,4.6,3.1,3.1,0,0,0,2.28.94,3.25,3.25,0,0,0,2.24-5.53A3.07,3.07,0,0,0,779.61,256.44Zm46-4.22a1.42,1.42,0,0,0-1.35,1.08,10.92,10.92,0,0,1-3.54,4.5,8.6,8.6,0,0,1-5.18,1.73,8.33,8.33,0,0,1-7.13-3.52,13.05,13.05,0,0,1-2.38-8,15.64,15.64,0,0,1,2.52-9.15,8.92,8.92,0,0,1,7.83-4,8.57,8.57,0,0,1,4.8,1.41,7.19,7.19,0,0,1,3,4.13c.22.75.64,1.12,1.26,1.12q2,0,2-1.92a6.76,6.76,0,0,0-1.59-3.8q-3.17-4.36-9.51-4.36-6.76,0-10.49,4.88-3.5,4.55-3.5,11.73a16.17,16.17,0,0,0,3.31,10.37A11.49,11.49,0,0,0,815.3,263a12.91,12.91,0,0,0,9.93-4.69q2.33-2.53,2.33-4.22Q827.57,252.22,825.56,252.22Zm34.35-20.78q-6.95,0-10.54,4.69-3.22,4.22-3.22,11.21,0,6.8,3.26,11Q853,263,859.91,263t10.49-4.69q3.31-4.12,3.31-10.93,0-7-3.31-11.21Q866.76,231.43,859.91,231.44Zm7.69,24.39a9,9,0,0,1-7.69,3.75,8.88,8.88,0,0,1-7.69-3.8,14.26,14.26,0,0,1-2.38-8.49,14.73,14.73,0,0,1,2.38-8.68,9.65,9.65,0,0,1,15.39,0,15,15,0,0,1,2.38,8.73A14.17,14.17,0,0,1,867.6,255.83Zm57-24.39a1.86,1.86,0,0,0-1.82,1L910.1,257.66l-12.73-25.19a1.82,1.82,0,0,0-1.77-1q-1.87,0-1.87,2V261q0,2,1.68,2t1.73-2V240l11.33,21.86A1.76,1.76,0,0,0,910.1,263a1.88,1.88,0,0,0,1.72-1.13L923.06,240v21q0,2,1.73,2t1.72-2V233.41Q926.51,231.44,924.65,231.44Z" style="fill:none;stroke:#333;stroke-miterlimit:10;stroke-width:2.83464566929134px"/></g><g id="形状_4_拷贝_3_图像" data-name="形状 4 拷贝 3 图像"><rect width="288" height="288" rx="68.88" ry="68.88" style="fill:url(#未命名的渐变_106)"/></g><g id="形状_4_拷贝_4" data-name="形状 4 拷贝 4"><path d="M206.73,52.51H180.51c-22,0-38.26,17-38.26,38.24v104a12.83,12.83,0,1,0,19.1.23L161,102.63V90.75c0-10.26,9.51-19.54,19.54-19.54h26.23a19.44,19.44,0,0,1,19.54,19.54V199.15a19.33,19.33,0,0,1-19.54,19.53h-.38c-.2,0-.4,0-.6,0H186.81a12.78,12.78,0,1,0-1.71,18.74h21.64A38.28,38.28,0,0,0,245,199.15V90.75A38.37,38.37,0,0,0,206.73,52.51ZM130.33,214.45a12.8,12.8,0,0,0-8.57,3.28H92c-.2,0-.4,0-.6,0H81.26c-9.92,0-19.54-8.36-19.54-19.53V151.49H95.33a12.77,12.77,0,1,0-.4-18.74H61.73v-42A19.49,19.49,0,0,1,81.26,71.22H91.31c.24,0,.47,0,.71,0h29.74a12.78,12.78,0,1,0-.26-18.75H81.26A38.25,38.25,0,0,0,43,90.75V198.24c0,22.35,18.83,38.23,38.26,38.23h40.23a12.8,12.8,0,1,0,8.84-22Z" style="fill:#fff;fill-rule:evenodd"/></g></g></svg>