<?xml version="1.0" encoding="utf-8"?>
<!-- Generator: Adobe Illustrator 21.0.0, SVG Export Plug-In . SVG Version: 6.00 Build 0)  -->
<svg version="1.1" id="图层_1" xmlns="http://www.w3.org/2000/svg" xmlns:xlink="http://www.w3.org/1999/xlink" x="0px" y="0px"
	 viewBox="0 0 50 212" style="enable-background:new 0 0 50 212;" xml:space="preserve">
<style type="text/css">
	.st0{fill:#9B9B9B;}
	.st1{fill:none;stroke:#FFFFFF;stroke-width:2;}
	.st2{fill:#FFFFFF;}
	.st3{fill:url(#path-2_1_);}
</style>
<title>Artboard</title>
<desc>Created with Sketch.</desc>
<g id="path-1-link">
	<circle id="path-1" class="st0" cx="10" cy="10" r="10"/>
</g>
<circle id="Oval" class="st1" cx="10" cy="10" r="9"/>
<path id="Combined-Shape" class="st2" d="M14.3,9.6c-0.1-1.5-0.9-2.9-2.3-3.7C10.4,5,8.4,5.3,7.1,6.5C6.8,6.7,6.4,6.7,6.2,6.4
	C5.9,6.1,6,5.7,6.2,5.5C8,4,10.5,3.7,12.6,4.8c1.8,1,2.9,2.8,3,4.8h1.1l-1.8,2.7L13,9.6H14.3z"/>
<path id="Combined-Shape-Copy-2" class="st2" d="M5.6,10.5c0.1,1.5,0.9,2.9,2.3,3.7c1.6,0.9,3.6,0.6,4.9-0.5
	c0.3-0.2,0.7-0.2,0.9,0.1c0.2,0.3,0.2,0.7-0.1,0.9c-1.8,1.5-4.3,1.8-6.4,0.7c-1.8-1-2.9-2.8-3-4.8H3.3l1.8-2.7l1.8,2.7H5.6z"/>
<g id="path-2-link">
	<linearGradient id="path-2_1_" gradientUnits="userSpaceOnUse" x1="2.9289" y1="22.9289" x2="17.0711" y2="37.0711">
		<stop  offset="0" style="stop-color:#17B6FF"/>
		<stop  offset="0.46" style="stop-color:#6094E9"/>
		<stop  offset="1" style="stop-color:#FE2AFF"/>
		<stop  offset="1" style="stop-color:#9C36FF"/>
	</linearGradient>
	<circle id="path-2" class="st3" cx="10" cy="30" r="10"/>
</g>
<circle id="Oval_1_" class="st1" cx="10" cy="30" r="9"/>
<path id="Combined-Shape_1_" class="st2" d="M14.3,29.6c-0.1-1.5-0.9-2.9-2.3-3.7c-1.6-0.9-3.6-0.6-4.9,0.5
	c-0.3,0.2-0.7,0.2-0.9-0.1c-0.2-0.3-0.2-0.7,0.1-0.9c1.8-1.5,4.3-1.8,6.4-0.7c1.8,1,2.9,2.8,3,4.8h1.1l-1.8,2.7L13,29.6H14.3z"/>
<path id="Combined-Shape-Copy-2_1_" class="st2" d="M5.6,30.5c0.1,1.5,0.9,2.9,2.3,3.7c1.6,0.9,3.6,0.6,4.9-0.5
	c0.3-0.2,0.7-0.2,0.9,0.1c0.2,0.3,0.2,0.7-0.1,0.9c-1.8,1.5-4.3,1.8-6.4,0.7c-1.8-1-2.9-2.8-3-4.8H3.3l1.8-2.7l1.8,2.7H5.6z"/>
</svg>
